<svg width="694" height="677" viewBox="0 0 694 677" fill="none" xmlns="http://www.w3.org/2000/svg">
<path d="M200.667 243.035H140.667C103.33 243.035 84.6613 243.035 70.4007 250.302C57.8563 256.693 47.6577 266.892 41.2663 279.437C34 293.697 34 312.367 34 349.703V536.37C34 573.707 34 592.373 41.2663 606.633C47.6577 619.18 57.8563 629.377 70.4007 635.77C84.6613 643.037 103.33 643.036 140.667 643.036H526.9C564.237 643.036 582.903 643.037 597.167 635.77C609.71 629.377 619.907 619.18 626.3 606.633C633.567 592.373 633.567 573.707 633.567 536.37V343.037M134 443.037H134.333M267.333 443.033H267.667M317.963 372.853L361.79 364.19C385.44 359.517 397.263 357.18 408.29 352.877C418.077 349.057 427.377 344.093 436 338.087C445.713 331.323 454.233 322.8 471.28 305.753L642.893 134.14C665.803 111.232 665.803 74.0899 642.893 51.1812C619.987 28.2729 582.843 28.2729 559.937 51.1815L385.387 225.729C369.417 241.701 361.43 249.688 354.98 258.74C349.253 266.777 344.437 275.425 340.62 284.523C336.32 294.773 333.737 305.77 328.567 327.757L317.963 372.853Z" stroke="#4966CD" stroke-width="66.6667" stroke-linecap="round" stroke-linejoin="round"/>
</svg>
