<svg width="152" height="177" viewBox="0 0 152 177" fill="none" xmlns="http://www.w3.org/2000/svg">
<path d="M142.736 24.2703H107.765V6.42297C107.765 2.87749 104.887 0 101.342 0H49.9579C46.4124 0 43.5349 2.87749 43.5349 6.42297V24.2703H8.56396C3.83666 24.2703 0 28.1069 0 32.8342C0 37.5615 3.83666 41.3982 8.56396 41.3982H17.1322V166.295C17.1322 172.208 21.9237 177 27.8372 177H123.462C129.376 177 134.167 172.208 134.167 166.295V41.3982H142.736C147.463 41.3982 151.3 37.5615 151.3 32.8342C151.3 28.1069 147.459 24.2703 142.736 24.2703ZM47.8169 152.738C47.8169 156.284 44.9394 159.161 41.3939 159.161C37.8484 159.161 34.9709 156.284 34.9709 152.738V62.8167C34.9709 59.2712 37.8484 56.3937 41.3939 56.3937C44.9394 56.3937 47.8169 59.2712 47.8169 62.8167V152.738ZM82.0727 152.738C82.0727 156.284 79.1953 159.161 75.6498 159.161C72.1043 159.161 69.2268 156.284 69.2268 152.738V62.8167C69.2268 59.2712 72.1043 56.3937 75.6498 56.3937C79.1953 56.3937 82.0727 59.2712 82.0727 62.8167V152.738ZM94.9187 24.2703H56.3809V12.8459H94.9187V24.2703ZM116.329 152.738C116.329 156.284 113.451 159.161 109.906 159.161C106.36 159.161 103.483 156.284 103.483 152.738V62.8167C103.483 59.2712 106.36 56.3937 109.906 56.3937C113.451 56.3937 116.329 59.2712 116.329 62.8167V152.738Z" fill="#F7AB3A"/>
</svg>
